<svg width="45" height="30" viewBox="0 0 45 30" fill="none" xmlns="http://www.w3.org/2000/svg">
<g clip-path="url(#clip0_561_37)">
<path d="M0 0H45V30.0003H0V0Z" fill="white"/>
<path d="M25.3125 -0.000274658H19.6875V12.1872H0V17.8122H19.6875V29.9996H25.3125V17.8122H45V12.1872H25.3125V-0.000274658Z" fill="#D80027"/>
<path d="M34.61 20.217L45 25.9893V20.217H34.61ZM27.3913 20.217L45 29.9996V27.2333L32.3707 20.217H27.3913ZM40.3096 29.9996L27.3913 22.8221V29.9996H40.3096Z" fill="#0052B4"/>
<path d="M27.3913 20.217L45 29.9996V27.2333L32.3707 20.217H27.3913Z" fill="white"/>
<path d="M27.3913 20.217L45 29.9996V27.2333L32.3707 20.217H27.3913Z" fill="#D80027"/>
<path d="M7.94013 20.2169L0 24.6281V20.2169H7.94013ZM17.6087 21.4609V29.9995H2.24042L17.6087 21.4609Z" fill="#0052B4"/>
<path d="M12.6293 20.217L0 27.2333V29.9996L17.6087 20.217H12.6293Z" fill="#D80027"/>
<path d="M10.39 9.7823L0 4.01V9.7823H10.39ZM17.6087 9.7823L0 -0.000274658V2.76599L12.6293 9.7823H17.6087ZM4.69037 -0.000274658L17.6087 7.17723V-0.000274658H4.69037Z" fill="#0052B4"/>
<path d="M17.6087 9.7823L0 -0.000274658V2.76599L12.6293 9.7823H17.6087Z" fill="white"/>
<path d="M17.6087 9.7823L0 -0.000274658V2.76599L12.6293 9.7823H17.6087Z" fill="#D80027"/>
<path d="M37.0599 9.78248L45 5.37125V9.78248H37.0599ZM27.3913 8.53848V-0.000183105H42.7596L27.3913 8.53848Z" fill="#0052B4"/>
<path d="M32.3707 9.7823L45 2.76599V-0.000274658L27.3913 9.7823H32.3707Z" fill="#D80027"/>
</g>
<path d="M0 0V-1H-1V0H0ZM45 0H46V-1H45V0ZM45 30V31H46V30H45ZM0 30H-1V31H0V30ZM0 1H45V-1H0V1ZM44 0V30H46V0H44ZM45 29H0V31H45V29ZM1 30V0H-1V30H1Z" fill="black"/>
<defs>
<clipPath id="clip0_561_37">
<path d="M0 0H45V30H0V0Z" fill="white"/>
</clipPath>
</defs>
</svg>
